<svg xmlns="http://www.w3.org/2000/svg" viewBox="0 0 360 180">
  <rect class="cls-1" width="360" height="180"/>
  <g>
    <path class="cls-2" d="M64.6,53.51a7.82,7.82,0,0,1-3.22.58c-3.44,0-6-2.17-6-6.17a6.07,6.07,0,0,1,6.37-6.4,6.55,6.55,0,0,1,2.9.54l-.38,1.28a5.77,5.77,0,0,0-2.47-.5c-2.85,0-4.75,1.82-4.75,5,0,3,1.71,4.9,4.68,4.9a6.42,6.42,0,0,0,2.57-.5Z"/>
    <path class="cls-2" d="M66.51,41.06h1.6v5.47h0a3,3,0,0,1,1.14-1.12A3.29,3.29,0,0,1,70.91,45c1.18,0,3.06.73,3.06,3.75v5.21H72.38v-5c0-1.41-.53-2.6-2-2.6a2.29,2.29,0,0,0-2.14,1.59,1.92,1.92,0,0,0-.1.76v5.28h-1.6Z"/>
    <path class="cls-2" d="M77.44,49.82a2.8,2.8,0,0,0,3,3,5.85,5.85,0,0,0,2.43-.45l.27,1.14a7.15,7.15,0,0,1-2.91.54,4.06,4.06,0,0,1-4.31-4.41C75.92,47,77.48,45,80,45c2.86,0,3.62,2.52,3.62,4.13a5.31,5.31,0,0,1-.06.74Zm4.67-1.14a2.27,2.27,0,0,0-2.21-2.59,2.64,2.64,0,0,0-2.44,2.59Z"/>
    <path class="cls-2" d="M91.86,53.59a6,6,0,0,1-2.51.5A4.16,4.16,0,0,1,85,49.62,4.46,4.46,0,0,1,89.69,45a5.49,5.49,0,0,1,2.21.45l-.36,1.24a3.67,3.67,0,0,0-1.85-.42,3,3,0,0,0-3.09,3.31,3,3,0,0,0,3,3.28,4.49,4.49,0,0,0,2-.44Z"/>
    <path class="cls-2" d="M95.3,49.17h0c.22-.31.53-.69.78-1l2.57-3h1.92l-3.38,3.6,3.85,5.16H99.13l-3-4.2-.81.91v3.29H93.72V41.06H95.3Z"/>
    <path class="cls-2" d="M103.09,49.82a2.81,2.81,0,0,0,3,3,5.77,5.77,0,0,0,2.42-.45l.27,1.14a7.15,7.15,0,0,1-2.91.54,4.07,4.07,0,0,1-4.31-4.41c0-2.64,1.56-4.73,4.11-4.73,2.86,0,3.62,2.52,3.62,4.13a5.67,5.67,0,0,1,0,.74Zm4.67-1.14a2.26,2.26,0,0,0-2.2-2.59,2.65,2.65,0,0,0-2.45,2.59Z"/>
    <path class="cls-2" d="M118.84,41.06V51.65c0,.78,0,1.66.07,2.26h-1.43l-.07-1.52h0a3.24,3.24,0,0,1-3,1.72c-2.11,0-3.74-1.79-3.74-4.45,0-2.91,1.79-4.71,3.92-4.71a3,3,0,0,1,2.65,1.34h0V41.06Zm-1.6,7.66a2.55,2.55,0,0,0-.07-.67,2.34,2.34,0,0,0-2.3-1.85c-1.64,0-2.62,1.45-2.62,3.39,0,1.77.87,3.24,2.59,3.24a2.4,2.4,0,0,0,2.33-1.9,2.57,2.57,0,0,0,.07-.69Z"/>
  </g>
  <g>
    <path class="cls-2" d="M254.15,41.71v5.11h5.9V41.71h1.59v12.2h-1.59V48.19h-5.9v5.72h-1.58V41.71Z"/>
    <path class="cls-2" d="M272.24,49.46a4.28,4.28,0,0,1-4.36,4.65,4.17,4.17,0,0,1-4.2-4.51c0-2.93,1.92-4.65,4.35-4.65S272.24,46.78,272.24,49.46Zm-6.95.09c0,1.92,1.11,3.37,2.66,3.37s2.66-1.43,2.66-3.41c0-1.48-.74-3.36-2.62-3.36S265.29,47.89,265.29,49.55Z"/>
    <path class="cls-2" d="M274.74,45.15l1.72,4.93a21.82,21.82,0,0,1,.7,2.24h.06c.2-.72.45-1.45.74-2.24l1.7-4.93h1.66l-3.43,8.76h-1.52L273,45.15Z"/>
    <path class="cls-2" d="M283.53,49.82a2.8,2.8,0,0,0,3,3,5.85,5.85,0,0,0,2.43-.45l.27,1.14a7.15,7.15,0,0,1-2.91.54A4.06,4.06,0,0,1,282,49.68C282,47,283.57,45,286.12,45c2.86,0,3.62,2.52,3.62,4.13a5.31,5.31,0,0,1-.06.74Zm4.67-1.14A2.27,2.27,0,0,0,286,46.09a2.64,2.64,0,0,0-2.44,2.59Z"/>
    <path class="cls-2" d="M291.71,47.89c0-1,0-1.92-.08-2.74H293l.05,1.72h.07A2.64,2.64,0,0,1,295.58,45,1.53,1.53,0,0,1,296,45v1.5a2.16,2.16,0,0,0-.54,0,2.24,2.24,0,0,0-2.14,2,5.32,5.32,0,0,0-.07.74v4.67h-1.57Z"/>
  </g>
  <g>
    <path class="cls-2" d="M57.65,129.71v12.2H56.07v-12.2Z"/>
    <path class="cls-2" d="M60.53,135.52c0-.9,0-1.64-.08-2.37h1.41l.1,1.45h0a3.24,3.24,0,0,1,2.9-1.65c1.21,0,3.09.73,3.09,3.73v5.23H66.39v-5c0-1.41-.53-2.58-2-2.58a2.25,2.25,0,0,0-2.13,1.62,2.12,2.12,0,0,0-.11.75v5.26H60.53Z"/>
    <path class="cls-2" d="M78.13,129.06v10.59c0,.78,0,1.66.07,2.26H76.77l-.07-1.52h0a3.22,3.22,0,0,1-3,1.72c-2.12,0-3.75-1.79-3.75-4.45,0-2.91,1.79-4.71,3.93-4.71a2.94,2.94,0,0,1,2.64,1.34h0v-5.23Zm-1.59,7.66a3.05,3.05,0,0,0-.07-.67,2.36,2.36,0,0,0-2.3-1.85c-1.65,0-2.63,1.45-2.63,3.39,0,1.77.87,3.24,2.59,3.24a2.4,2.4,0,0,0,2.34-1.9,3,3,0,0,0,.07-.69Z"/>
    <path class="cls-2" d="M81.66,137.82a2.8,2.8,0,0,0,3,3,5.77,5.77,0,0,0,2.42-.45l.28,1.14a7.17,7.17,0,0,1-2.92.54,4.06,4.06,0,0,1-4.3-4.41c0-2.64,1.55-4.73,4.1-4.73,2.86,0,3.62,2.52,3.62,4.13a5.67,5.67,0,0,1,0,.74Zm4.67-1.14a2.28,2.28,0,0,0-2.21-2.59,2.65,2.65,0,0,0-2.45,2.59Z"/>
    <path class="cls-2" d="M91.75,130.64v2.51H94v1.22H91.75v4.72c0,1.08.31,1.7,1.2,1.7a3.31,3.31,0,0,0,.92-.11l.07,1.2a4.06,4.06,0,0,1-1.41.21,2.19,2.19,0,0,1-1.72-.67,3.26,3.26,0,0,1-.61-2.28v-4.77H88.84v-1.22H90.2v-2.1Z"/>
    <path class="cls-2" d="M96.6,137.82a2.8,2.8,0,0,0,3,3,5.85,5.85,0,0,0,2.43-.45l.27,1.14a7.15,7.15,0,0,1-2.91.54,4.06,4.06,0,0,1-4.31-4.41c0-2.64,1.56-4.73,4.11-4.73,2.86,0,3.62,2.52,3.62,4.13a5.31,5.31,0,0,1-.06.74Zm4.67-1.14a2.27,2.27,0,0,0-2.21-2.59,2.64,2.64,0,0,0-2.44,2.59Z"/>
    <path class="cls-2" d="M104.78,135.89c0-1,0-1.92-.08-2.74h1.4l.05,1.72h.07a2.64,2.64,0,0,1,2.43-1.92,1.53,1.53,0,0,1,.45.06v1.5a2.16,2.16,0,0,0-.54,0,2.24,2.24,0,0,0-2.14,2,5.32,5.32,0,0,0-.07.74v4.67h-1.57Z"/>
    <path class="cls-2" d="M110.77,135.52c0-.9,0-1.64-.08-2.37h1.4l.07,1.41h0A3,3,0,0,1,115,133a2.59,2.59,0,0,1,2.48,1.76h0a3.47,3.47,0,0,1,1-1.14,3,3,0,0,1,1.93-.62c1.16,0,2.88.76,2.88,3.8v5.16h-1.56v-5c0-1.68-.61-2.69-1.9-2.69a2.06,2.06,0,0,0-1.88,1.45,2.61,2.61,0,0,0-.13.79v5.41h-1.55v-5.25c0-1.39-.62-2.4-1.83-2.4a2.17,2.17,0,0,0-2,1.59,2.2,2.2,0,0,0-.13.78v5.28h-1.55Z"/>
    <path class="cls-2" d="M127.63,130.69a1,1,0,0,1-2,0,1,1,0,0,1,1-1A.94.94,0,0,1,127.63,130.69Zm-1.78,11.22v-8.76h1.6v8.76Z"/>
    <path class="cls-2" d="M130.09,135.52c0-.9,0-1.64-.08-2.37h1.42l.09,1.45h0a3.24,3.24,0,0,1,2.9-1.65c1.21,0,3.09.73,3.09,3.73v5.23H136v-5c0-1.41-.52-2.58-2-2.58a2.25,2.25,0,0,0-2.13,1.62,2.37,2.37,0,0,0-.11.75v5.26h-1.59Z"/>
    <path class="cls-2" d="M145,141.91l-.13-1.1h0a3.26,3.26,0,0,1-2.68,1.3,2.49,2.49,0,0,1-2.68-2.51c0-2.12,1.88-3.28,5.27-3.26v-.18a1.81,1.81,0,0,0-2-2,4.32,4.32,0,0,0-2.28.65l-.37-1.05A5.48,5.48,0,0,1,143,133c2.68,0,3.33,1.83,3.33,3.59v3.27a12.19,12.19,0,0,0,.15,2.1Zm-.24-4.47c-1.74,0-3.71.27-3.71,2a1.41,1.41,0,0,0,1.5,1.53,2.19,2.19,0,0,0,2.12-1.47,1.48,1.48,0,0,0,.09-.51Z"/>
    <path class="cls-2" d="M150.69,130.64v2.51H153v1.22h-2.28v4.72c0,1.08.31,1.7,1.2,1.7a3.31,3.31,0,0,0,.92-.11l.07,1.2a4,4,0,0,1-1.41.21,2.19,2.19,0,0,1-1.72-.67,3.26,3.26,0,0,1-.61-2.28v-4.77h-1.36v-1.22h1.36v-2.1Z"/>
    <path class="cls-2" d="M155.54,137.82a2.81,2.81,0,0,0,3,3,5.8,5.8,0,0,0,2.42-.45l.27,1.14a7.15,7.15,0,0,1-2.91.54,4.06,4.06,0,0,1-4.31-4.41c0-2.64,1.56-4.73,4.11-4.73,2.86,0,3.62,2.52,3.62,4.13a5.31,5.31,0,0,1-.06.74Zm4.67-1.14a2.27,2.27,0,0,0-2.21-2.59,2.64,2.64,0,0,0-2.44,2.59Z"/>
  </g>
  <g>
    <path class="cls-2" d="M57.65,85.71v7.23c0,2.73,1.21,3.89,2.84,3.89,1.81,0,3-1.2,3-3.89V85.71h1.59v7.12c0,3.74-2,5.28-4.61,5.28s-4.38-1.43-4.38-5.21V85.71Z"/>
    <path class="cls-2" d="M67.73,91.52c0-.9,0-1.64-.08-2.37h1.41l.1,1.45h0A3.24,3.24,0,0,1,72.09,89c1.21,0,3.09.73,3.09,3.73v5.23H73.59v-5c0-1.41-.53-2.58-2-2.58a2.25,2.25,0,0,0-2.13,1.62,2.12,2.12,0,0,0-.11.75v5.26H67.73Z"/>
    <path class="cls-2" d="M84,97.59a6,6,0,0,1-2.52.5,4.16,4.16,0,0,1-4.36-4.47A4.46,4.46,0,0,1,81.84,89a5.49,5.49,0,0,1,2.21.45l-.37,1.24a3.63,3.63,0,0,0-1.84-.42,3.3,3.3,0,0,0-.06,6.59,4.5,4.5,0,0,0,2-.44Z"/>
    <path class="cls-2" d="M85.87,85.06h1.59v5.47h0a2.92,2.92,0,0,1,1.14-1.12A3.29,3.29,0,0,1,90.27,89c1.18,0,3.06.73,3.06,3.75v5.21h-1.6v-5c0-1.41-.52-2.6-2-2.6a2.29,2.29,0,0,0-2.14,1.59,1.91,1.91,0,0,0-.11.76v5.28H85.87Z"/>
    <path class="cls-2" d="M96.8,93.82a2.8,2.8,0,0,0,3,3,5.85,5.85,0,0,0,2.43-.45l.27,1.14a7.15,7.15,0,0,1-2.91.54,4.06,4.06,0,0,1-4.31-4.41C95.28,91,96.83,89,99.39,89c2.86,0,3.62,2.52,3.62,4.13a5.31,5.31,0,0,1-.06.74Zm4.67-1.14a2.27,2.27,0,0,0-2.21-2.59,2.64,2.64,0,0,0-2.44,2.59Z"/>
    <path class="cls-2" d="M111.22,97.59a6,6,0,0,1-2.52.5,4.16,4.16,0,0,1-4.36-4.47A4.46,4.46,0,0,1,109.05,89a5.49,5.49,0,0,1,2.21.45l-.37,1.24a3.63,3.63,0,0,0-1.84-.42,3.3,3.3,0,0,0-.06,6.59,4.5,4.5,0,0,0,2-.44Z"/>
    <path class="cls-2" d="M114.66,93.17h0c.22-.31.53-.69.78-1l2.57-3H120l-3.39,3.6,3.86,5.16h-1.94l-3-4.2-.81.91v3.29h-1.58V85.06h1.58Z"/>
    <path class="cls-2" d="M122.45,93.82a2.81,2.81,0,0,0,3,3,5.8,5.8,0,0,0,2.42-.45l.27,1.14a7.15,7.15,0,0,1-2.91.54,4.06,4.06,0,0,1-4.31-4.41C120.93,91,122.49,89,125,89c2.86,0,3.62,2.52,3.62,4.13,0,.33,0,.58,0,.74Zm4.67-1.14a2.27,2.27,0,0,0-2.21-2.59,2.64,2.64,0,0,0-2.44,2.59Z"/>
    <path class="cls-2" d="M138.19,85.06V95.65c0,.78,0,1.66.08,2.26h-1.43l-.08-1.52h0a3.24,3.24,0,0,1-3,1.72c-2.11,0-3.74-1.79-3.74-4.45,0-2.91,1.79-4.71,3.92-4.71a3,3,0,0,1,2.65,1.34h0V85.06Zm-1.59,7.66a3.05,3.05,0,0,0-.07-.67,2.35,2.35,0,0,0-2.3-1.85c-1.65,0-2.62,1.45-2.62,3.39,0,1.77.87,3.24,2.58,3.24a2.4,2.4,0,0,0,2.34-1.9,3,3,0,0,0,.07-.69Z"/>
  </g>
  <path class="cls-2" d="M40.38,56.8H22.62a1.92,1.92,0,0,1-1.92-1.92V37.12a1.92,1.92,0,0,1,1.92-1.92H40.38a1.92,1.92,0,0,1,1.92,1.92V54.88A1.92,1.92,0,0,1,40.38,56.8ZM30.3,52.53l8-8.91a.63.63,0,0,0-.05-.89l-1.74-1.56a.63.63,0,0,0-.89,0l-6,6.66-2.26-2.26a.64.64,0,0,0-.89,0l-1.66,1.66a.64.64,0,0,0,0,.89l4.4,4.39A.74.74,0,0,0,30.3,52.53Z"/>
  <path class="cls-3" d="M236.88,56.8H219.12a1.92,1.92,0,0,1-1.92-1.92V37.12a1.92,1.92,0,0,1,1.92-1.92h17.76a1.92,1.92,0,0,1,1.92,1.92V54.88A1.92,1.92,0,0,1,236.88,56.8ZM226.8,52.53l8-8.91a.63.63,0,0,0-.05-.89L233,41.17a.63.63,0,0,0-.89,0l-6,6.66-2.26-2.26a.64.64,0,0,0-.89,0l-1.66,1.66a.64.64,0,0,0,0,.89l4.4,4.39A.74.74,0,0,0,226.8,52.53Z"/>
  <g>
    <path class="cls-4" d="M252.57,83.88a21.83,21.83,0,0,1,3.35-.26,7,7,0,0,1,4.94,1.52,5.62,5.62,0,0,1,1.72,4.38,6.48,6.48,0,0,1-1.75,4.75,7.53,7.53,0,0,1-5.4,1.75,25.74,25.74,0,0,1-2.86-.14Zm1.58,10.78a9.15,9.15,0,0,0,1.59.09c3.37,0,5.2-1.88,5.2-5.17,0-2.88-1.62-4.71-4.94-4.71a8.91,8.91,0,0,0-1.85.17Z"/>
    <path class="cls-4" d="M266.34,84.69a.94.94,0,0,1-1,1,1,1,0,0,1-1-1,1,1,0,0,1,1-1A.94.94,0,0,1,266.34,84.69Zm-1.77,11.22V87.15h1.59v8.76Z"/>
    <path class="cls-4" d="M268.59,94.28a4.13,4.13,0,0,0,2.09.64c1.16,0,1.71-.58,1.71-1.31s-.46-1.17-1.63-1.61c-1.58-.56-2.32-1.43-2.32-2.48,0-1.41,1.14-2.57,3-2.57a4.38,4.38,0,0,1,2.16.55l-.4,1.16a3.41,3.41,0,0,0-1.79-.51c-.94,0-1.47.54-1.47,1.19s.53,1,1.67,1.49c1.52.58,2.29,1.34,2.29,2.64,0,1.54-1.19,2.62-3.27,2.62a5,5,0,0,1-2.46-.59Z"/>
    <path class="cls-4" d="M280.82,95.91l-.13-1.1h-.05a3.26,3.26,0,0,1-2.68,1.3,2.49,2.49,0,0,1-2.68-2.51c0-2.12,1.88-3.28,5.26-3.26v-.18a1.8,1.8,0,0,0-2-2,4.37,4.37,0,0,0-2.28.65l-.36-1a5.48,5.48,0,0,1,2.88-.78c2.68,0,3.33,1.83,3.33,3.59v3.27a13.35,13.35,0,0,0,.14,2.1Zm-.24-4.47c-1.74,0-3.71.27-3.71,2a1.41,1.41,0,0,0,1.5,1.53,2.19,2.19,0,0,0,2.12-1.47,1.76,1.76,0,0,0,.09-.51Z"/>
    <path class="cls-4" d="M284.61,95.91c0-.6.08-1.48.08-2.26V83.06h1.57v5.5h0a3.27,3.27,0,0,1,3-1.61c2.18,0,3.71,1.81,3.7,4.47,0,3.13-2,4.69-3.93,4.69a3.11,3.11,0,0,1-2.93-1.65h-.06L286,95.91Zm1.65-3.51a3.54,3.54,0,0,0,.07.58,2.46,2.46,0,0,0,2.39,1.86c1.67,0,2.66-1.35,2.66-3.36,0-1.76-.9-3.26-2.6-3.26a2.54,2.54,0,0,0-2.43,2,3.51,3.51,0,0,0-.09.65Z"/>
    <path class="cls-4" d="M295,83.06h1.59V95.91H295Z"/>
    <path class="cls-4" d="M300.14,91.82a2.8,2.8,0,0,0,3,3,5.85,5.85,0,0,0,2.43-.45l.27,1.14a7.17,7.17,0,0,1-2.92.54,4.06,4.06,0,0,1-4.3-4.41c0-2.64,1.55-4.73,4.11-4.73,2.85,0,3.61,2.52,3.61,4.13a5.67,5.67,0,0,1,0,.74Zm4.67-1.14a2.28,2.28,0,0,0-2.21-2.59,2.64,2.64,0,0,0-2.44,2.59Z"/>
    <path class="cls-4" d="M315.88,83.06V93.65c0,.78,0,1.66.07,2.26h-1.43l-.07-1.52h0a3.23,3.23,0,0,1-3,1.72c-2.12,0-3.75-1.79-3.75-4.45,0-2.91,1.79-4.71,3.93-4.71a2.94,2.94,0,0,1,2.64,1.34h0V83.06Zm-1.59,7.66a2.56,2.56,0,0,0-.08-.67,2.34,2.34,0,0,0-2.29-1.85c-1.65,0-2.63,1.45-2.63,3.39,0,1.77.87,3.24,2.59,3.24a2.39,2.39,0,0,0,2.33-1.9,2.56,2.56,0,0,0,.08-.69Z"/>
  </g>
  <path class="cls-4" d="M236.88,98.8H219.12a1.92,1.92,0,0,1-1.92-1.92V79.12a1.92,1.92,0,0,1,1.92-1.92h17.76a1.92,1.92,0,0,1,1.92,1.92V96.88A1.92,1.92,0,0,1,236.88,98.8ZM226.8,94.53l8-8.91a.63.63,0,0,0-.05-.89L233,83.17a.63.63,0,0,0-.89,0l-6,6.66-2.26-2.26a.64.64,0,0,0-.89,0l-1.66,1.66a.64.64,0,0,0,0,.89l4.4,4.39A.74.74,0,0,0,226.8,94.53Z"/>
  <path class="cls-2" d="M40.38,79.2H22.62a1.92,1.92,0,0,0-1.92,1.92V98.88a1.92,1.92,0,0,0,1.92,1.92H40.38a1.92,1.92,0,0,0,1.92-1.92V81.12A1.92,1.92,0,0,0,40.38,79.2Zm1,20.7H21.6V80.1H41.4Z"/>
  <path class="cls-2" d="M40.38,144.8H22.62a1.92,1.92,0,0,1-1.92-1.92V125.12a1.92,1.92,0,0,1,1.92-1.92H40.38a1.92,1.92,0,0,1,1.92,1.92v17.76A1.92,1.92,0,0,1,40.38,144.8ZM36,132.2H27v3.6h9Z"/>
</svg>
