<svg id="on" xmlns="http://www.w3.org/2000/svg" viewBox="0 0 24 24">
  <defs>
    <style>
      .cls-1 {
        fill: #231f20;
      }
    </style>
  </defs>
  <title>checkbox-on</title>
  <path class="cls-1" d="M21.87,24H2.13A2.14,2.14,0,0,1,0,21.87V2.13A2.14,2.14,0,0,1,2.13,0H21.87A2.14,2.14,0,0,1,24,2.13V21.87A2.14,2.14,0,0,1,21.87,24ZM10.66,19.26l8.86-9.9a.7.7,0,0,0-.05-1L17.53,6.63a.71.71,0,0,0-1,.06l-6.62,7.4L7.41,11.58a.71.71,0,0,0-1,0L4.58,13.42a.71.71,0,0,0,0,1l4.89,4.88A.81.81,0,0,0,10.66,19.26Z"/>
</svg>
